<svg width="122" height="24" viewBox="0 0 122 24" fill="none" xmlns="http://www.w3.org/2000/svg">
<path d="M11.3615 19.4025C9.70039 19.4137 8.07354 18.9281 6.68804 18.0076C5.30254 17.0871 4.22106 15.7733 3.58126 14.2335C2.94147 12.6936 2.7723 10.9974 3.0953 9.36064C3.41829 7.72391 4.21883 6.22074 5.39502 5.04247C6.57144 3.86365 8.06851 3.06041 9.69806 2.7337C11.3276 2.40698 13.017 2.57138 14.5538 3.20622C16.0906 3.84106 17.4063 4.91802 18.3356 6.30175C19.2649 7.68548 19.7662 9.31424 19.7766 10.9833C19.7696 13.2199 18.8797 15.3623 17.3021 16.9407C15.7245 18.519 13.5881 19.4044 11.3615 19.4025ZM11.3615 5.33833C10.2499 5.34437 9.16508 5.68098 8.24377 6.30568C7.32247 6.93038 6.60601 7.81518 6.18479 8.84845C5.76358 9.88172 5.65648 11.0172 5.87702 12.1115C6.09756 13.2058 6.63584 14.21 7.42396 14.9974C8.21207 15.7848 9.21471 16.3201 10.3054 16.5357C11.396 16.7513 12.5258 16.6376 13.5522 16.2089C14.5786 15.7803 15.4556 15.0559 16.0725 14.1271C16.6894 13.1983 17.0187 12.1068 17.0187 10.9902C17.0091 9.48894 16.4091 8.05232 15.3493 6.99359C14.2896 5.93485 12.8562 5.33986 11.3615 5.33833Z" fill="white"/>
<path d="M21.2699 15.7309C21.2895 15.6895 21.3131 15.654 21.3327 15.6126C21.9578 14.2944 22.3119 12.8631 22.3739 11.4043C22.436 9.94558 22.2046 8.48923 21.6937 7.1223C21.1827 5.75537 20.4027 4.50592 19.4003 3.44859C18.3978 2.39127 17.1934 1.54777 15.8591 0.968489V0.95271C15.7492 0.9034 15.6372 0.867897 15.5263 0.823518C15.381 0.762374 15.2317 0.705174 15.0855 0.652906C14.8891 0.579927 14.6927 0.515824 14.4816 0.455666C14.3383 0.412273 14.195 0.372825 14.0506 0.33535C13.8353 0.280122 13.6203 0.232456 13.4056 0.192351C13.274 0.166709 13.1424 0.145013 13.0128 0.125289C12.7897 0.0917583 12.5665 0.0651309 12.3433 0.0454069C12.2215 0.0355449 12.0978 0.0256829 11.9751 0.0197657C11.7421 0.00793135 11.5097 0.00201416 11.278 0.00201416C11.1543 0.00201416 11.0306 0.00201416 10.9078 0.0118762C10.682 0.0217381 10.4572 0.0375173 10.2353 0.0611861C10.0998 0.0749929 9.96628 0.0927445 9.83178 0.112468C9.63541 0.142054 9.4204 0.175585 9.21814 0.217006C9.06498 0.248564 8.91084 0.282095 8.75767 0.315626C8.60451 0.349156 8.40127 0.406356 8.22651 0.458624C8.05175 0.510893 7.87895 0.57401 7.70615 0.634168C7.53335 0.694326 7.41161 0.74265 7.26335 0.800836C7.06699 0.877759 6.88143 0.961586 6.69292 1.04837C6.56921 1.10557 6.44747 1.16474 6.3267 1.22687C6.13034 1.32549 5.93398 1.43891 5.73762 1.55331C5.63158 1.61642 5.52751 1.68053 5.42245 1.75055C5.22609 1.88204 5.03464 2.01353 4.84809 2.14503C4.7486 2.21866 4.65042 2.29328 4.55355 2.36889C4.37159 2.50893 4.19257 2.65621 4.0165 2.81071C3.91832 2.89947 3.82013 2.99118 3.72195 3.08389C3.56486 3.23576 3.41137 3.3929 3.26148 3.55529C3.1633 3.66574 3.06512 3.77718 2.96694 3.89158C2.83145 4.05233 2.69989 4.21802 2.57421 4.38468C2.47603 4.50993 2.38963 4.63814 2.30127 4.77916C2.23451 4.87778 2.15989 4.9764 2.09509 5.07009C2.03029 5.16378 1.99691 5.24465 1.94585 5.33143C1.87432 5.44797 1.80878 5.56812 1.74949 5.6914C1.62971 5.90935 1.51582 6.12927 1.41077 6.35117C1.37501 6.38833 1.34814 6.43318 1.33222 6.48233C1.31848 6.52769 1.29098 6.59476 1.26742 6.649C1.16269 6.8916 1.06779 7.13585 0.982695 7.38174C0.94735 7.48497 0.914623 7.58852 0.884514 7.6924C0.809896 7.93237 0.744442 8.17268 0.688151 8.41331C0.659351 8.53231 0.632515 8.65164 0.607642 8.7713C0.561824 8.99681 0.523207 9.22199 0.491788 9.44684C0.472152 9.58393 0.45448 9.72002 0.440734 9.8571C0.419134 10.0672 0.405389 10.2753 0.395571 10.4853C0.395571 10.6362 0.383789 10.7812 0.383789 10.937C0.383789 11.1342 0.383789 11.3315 0.399498 11.5287C0.399498 11.6835 0.417171 11.8394 0.430916 11.9942C0.448589 12.1914 0.476079 12.3887 0.50357 12.5859C0.517316 12.7269 0.550697 12.8818 0.570334 13.0356C0.607642 13.2329 0.654769 13.4301 0.70386 13.6273C0.74706 13.7723 0.772587 13.9084 0.81186 14.0494C0.870768 14.2467 0.939495 14.4538 1.00822 14.655C1.05339 14.7822 1.09855 14.9104 1.14764 15.0356C1.22815 15.2329 1.31848 15.44 1.41077 15.6392C1.46575 15.7575 1.52073 15.8749 1.57964 15.9913C1.67782 16.1885 1.78778 16.3857 1.89873 16.5672C1.96745 16.6855 2.03618 16.8009 2.10883 16.9153C2.22076 17.0899 2.34054 17.2615 2.46327 17.4301C2.55163 17.5544 2.64196 17.6757 2.73621 17.796C2.83047 17.9163 2.9797 18.0919 3.10636 18.2319C3.23301 18.3719 3.34003 18.4972 3.46472 18.6264C3.58941 18.7556 3.69839 18.8581 3.82112 18.9725C3.94384 19.0869 4.12253 19.2516 4.28159 19.3848C4.39155 19.4775 4.50544 19.5672 4.62228 19.656C4.80097 19.795 4.9826 19.9292 5.17111 20.0505C5.2202 20.084 5.2634 20.1215 5.31249 20.155C6.52422 20.9669 7.88516 21.5275 9.31548 21.804C10.7458 22.0805 12.2167 22.0673 13.6419 21.7652C15.067 21.4631 16.4178 20.8781 17.6149 20.0446C18.812 19.2111 19.8313 18.1459 20.6131 16.9114H20.6248C20.6622 16.8522 20.6916 16.7891 20.7289 16.7289C20.8094 16.5978 20.884 16.4597 20.9606 16.3226C21.0667 16.1244 21.1737 15.9291 21.2699 15.7309ZM7.20641 20.228C6.65761 19.9795 6.1319 19.6825 5.63551 19.3404C5.46074 19.2201 5.29089 19.0948 5.12595 18.9656C5.02187 18.8848 4.9178 18.8029 4.81667 18.7181C4.6694 18.5938 4.52999 18.4647 4.39155 18.3355C4.25311 18.2063 4.17162 18.1274 4.06461 18.0169C3.95759 17.9065 3.84075 17.7753 3.73374 17.653C3.62672 17.5307 3.50595 17.3897 3.39697 17.2585C3.28799 17.1274 3.2281 17.0347 3.14563 16.9203C3.03272 16.7674 2.91785 16.6096 2.81967 16.4479C2.7529 16.3414 2.69007 16.2358 2.6233 16.1274C2.52512 15.9528 2.42694 15.7753 2.32876 15.5968C2.27378 15.4903 2.22469 15.3828 2.17363 15.2743C2.09705 15.0771 2.01458 14.8976 1.93996 14.7082C1.8948 14.5938 1.85553 14.4784 1.81429 14.364C1.74753 14.1776 1.68469 13.9903 1.62971 13.7999C1.5924 13.6727 1.56098 13.5465 1.53153 13.4212C1.48636 13.2368 1.44317 13.0514 1.40782 12.867C1.38229 12.722 1.36069 12.5938 1.33517 12.4587C1.30768 12.2762 1.28411 12.0928 1.26644 11.9084C1.25269 11.7693 1.24484 11.6293 1.23698 11.4902C1.23698 11.3039 1.22128 11.1165 1.22128 10.9301C1.22128 10.795 1.22128 10.6589 1.23306 10.5257C1.23693 10.3279 1.25069 10.1304 1.27429 9.93403C1.28608 9.81174 1.30375 9.68846 1.31946 9.56617C1.34891 9.35414 1.38426 9.14211 1.42746 8.93205C1.44906 8.82554 1.47262 8.72002 1.49815 8.61548C1.55313 8.38865 1.61858 8.16347 1.69451 7.93993C1.72331 7.84854 1.75342 7.75683 1.78484 7.66478C1.86469 7.4327 1.95305 7.20258 2.04993 6.97444C2.0892 6.88174 2.12847 6.792 2.17167 6.70127C2.26675 6.4895 2.37259 6.28278 2.4888 6.08193C2.54967 5.97345 2.60858 5.86595 2.67338 5.75747C2.77941 5.58094 2.89134 5.40934 3.00818 5.2407C3.08868 5.12302 3.17116 5.00698 3.25559 4.89258C3.37472 4.73413 3.4981 4.57962 3.62574 4.42906C3.71344 4.3219 3.80181 4.22328 3.89083 4.1332C4.03221 3.98133 4.17653 3.83143 4.3238 3.6835C4.4102 3.6 4.49857 3.51814 4.58889 3.43793C4.7486 3.29526 4.91224 3.15785 5.0798 3.0257C5.16751 2.95601 5.25653 2.89026 5.34685 2.82846C5.52096 2.69697 5.69867 2.57501 5.87998 2.46258C5.97554 2.40078 6.07176 2.34194 6.16863 2.28605C6.34798 2.1802 6.53027 2.07928 6.7155 1.98329C6.82546 1.92675 6.93706 1.87251 7.0503 1.82057C7.22441 1.73904 7.40015 1.66244 7.57753 1.59078C7.70844 1.53687 7.84426 1.48592 7.98499 1.43792C8.14142 1.38335 8.3008 1.33207 8.46313 1.28407C8.62545 1.23608 8.78909 1.19236 8.95403 1.15291C9.09411 1.11872 9.23516 1.08585 9.3772 1.05429C9.56439 1.01616 9.75323 0.983282 9.9437 0.955669C10.0668 0.938575 10.1908 0.922796 10.3158 0.908331C10.5233 0.887292 10.7311 0.872171 10.9393 0.862966H11.278C11.4933 0.862966 11.709 0.868226 11.925 0.878745L12.2618 0.902414C12.4745 0.920823 12.6862 0.946464 12.897 0.979338C13.0161 0.997747 13.1356 1.01813 13.2554 1.04048C13.4563 1.07861 13.6569 1.12299 13.8572 1.17362C13.9868 1.20715 14.1164 1.24265 14.2499 1.2821C14.4384 1.33864 14.6266 1.40012 14.8145 1.46652C14.948 1.51583 15.0796 1.56514 15.2072 1.62135C16.487 2.13456 17.6475 2.90753 18.6162 3.89191C19.5849 4.87628 20.341 6.05088 20.8371 7.3422C21.3331 8.63353 21.5586 10.0138 21.4993 11.3966C21.4399 12.7795 21.0971 14.1352 20.4923 15.3788C20.402 15.5761 20.2959 15.7487 20.1978 15.9291C20.129 16.0514 20.0623 16.1747 19.9896 16.295C18.6896 18.3891 16.6795 19.9405 14.3302 20.6629C11.9809 21.3853 9.45077 21.2302 7.20641 20.226V20.228Z" fill="white"/>
<path d="M87.7852 7.76178C90.865 7.76178 92.8235 9.98384 92.8896 13.3936C92.9336 16.7815 91.0194 19.246 87.8076 19.2462C86.1796 19.2462 84.7054 18.5859 84.0234 17.4639V23.9981H81.4053V8.09186H83.8252L83.9795 9.74225C84.6395 8.48829 86.1352 7.76182 87.7852 7.76178ZM63.3799 7.76178C66.1079 7.76178 68.0656 9.47833 68.3516 12.0303H65.8223C65.5143 10.7545 64.5242 10.1379 63.3584 10.1378C61.6864 10.1378 60.6299 11.392 60.6299 13.504C60.6299 15.594 61.6639 16.8477 63.3359 16.8477C64.5239 16.8477 65.5143 16.2096 65.8223 14.9776H68.374C68.044 17.5295 65.976 19.2461 63.1602 19.2462C60.1022 19.2462 57.9463 16.914 57.9463 13.504C57.9463 10.094 60.1899 7.76179 63.3799 7.76178ZM51.2354 7.78424C54.6453 7.7843 56.8896 10.16 56.8896 13.504C56.8896 16.8479 54.6453 19.2236 51.2354 19.2237C47.8254 19.2237 45.5811 16.848 45.5811 13.504C45.5811 10.16 47.8254 7.78424 51.2354 7.78424ZM99.5771 7.78424C102.987 7.78441 105.23 10.1601 105.23 13.504C105.23 16.8479 102.987 19.2235 99.5771 19.2237C96.1671 19.2237 93.9229 16.848 93.9229 13.504C93.9229 10.16 96.1672 7.78424 99.5771 7.78424ZM33.7422 2.90045C37.0639 2.90059 38.9335 4.68207 38.9336 7.25592C38.9336 9.12591 37.9657 10.3577 36.4697 10.9297C38.0317 11.5677 39.1093 12.8 39.1094 14.7579C39.1094 17.4419 37.0196 18.96 33.8076 18.96H27.3838V2.90045H33.7422ZM43.7188 18.96H41.0342V2.59186H43.7188V18.96ZM72.5625 12.4922L76.7646 8.09186H80.1309L76.0166 12.4258L80.043 18.96H76.9629L74.1465 14.4063L72.5625 16.0342V18.96H69.8789V2.59186H72.5625V12.4922ZM109.72 9.36823C110.38 8.04825 112.249 7.67394 113.899 8.04791V10.3799H112.844C110.908 10.3799 109.785 11.5679 109.785 13.6797V18.96H107.102V8.11432H109.565L109.72 9.36823ZM119.548 8.09186H121.616V10.3135H119.548V18.96H116.886V10.3135H114.796V8.09186H116.886V4.70416H119.548V8.09186ZM51.2354 10.1817C49.4534 10.1817 48.2871 11.546 48.2871 13.504C48.2871 15.44 49.4534 16.8262 51.2354 16.8262C53.0173 16.8262 54.1836 15.4399 54.1836 13.504C54.1836 11.546 53.0173 10.1818 51.2354 10.1817ZM87.1914 10.2042C85.3214 10.2042 84.1338 11.5684 84.1338 13.5264C84.134 15.4842 85.3215 16.8262 87.1914 16.8262C89.0612 16.8262 90.1834 15.4622 90.1836 13.5264C90.1836 11.5905 89.0613 10.2042 87.1914 10.2042ZM99.5771 10.1817C97.7952 10.1817 96.6289 11.546 96.6289 13.504C96.6289 15.44 97.7952 16.8262 99.5771 16.8262C101.359 16.826 102.524 15.4398 102.524 13.504C102.524 11.5461 101.359 10.1819 99.5771 10.1817ZM30.1562 16.5616H33.8516C35.3696 16.5616 36.3594 15.704 36.3594 14.296C36.3593 12.866 35.2815 12.0079 33.8516 12.0079H30.1562V16.5616ZM30.1562 9.89557H33.6533C35.3473 9.89557 36.1621 8.83994 36.1621 7.62994C36.1621 6.44197 35.3473 5.29791 33.6533 5.29791H30.1562V9.89557Z" fill="#F2F4F7"/>
</svg>
